<?xml version="1.0" encoding="UTF-8"?>
<svg xmlns="http://www.w3.org/2000/svg" xmlns:xlink="http://www.w3.org/1999/xlink" width="660" height="337.333" viewBox="0 0 660 337.333">
<defs>
<clipPath id="clip-0">
<path clip-rule="nonzero" d="M 0 0 L 660 0 L 660 337.332031 L 0 337.332031 Z M 0 0 "/>
</clipPath>
</defs>
<g clip-path="url(#clip-0)">
<path fill-rule="nonzero" fill="rgb(37.998962%, 41.19873%, 43.499756%)" fill-opacity="1" d="M 253.558594 223.976562 C 257.324219 223.460938 262.90625 221.511719 266.261719 219.539062 C 270.195312 217.222656 274.890625 212.53125 277.203125 208.59375 C 282.378906 199.800781 283.433594 188.304688 279.972656 178.460938 C 276.285156 167.972656 268.085938 160.601562 256.789062 157.613281 C 254.210938 156.933594 253.105469 156.835938 248.164062 156.863281 C 241.925781 156.894531 239.777344 157.296875 234.84375 159.351562 C 221.308594 164.984375 213.707031 179.882812 216.152344 196 C 217.347656 203.902344 220.539062 210.242188 225.894531 215.359375 C 230.964844 220.203125 236.648438 222.902344 244.332031 224.109375 C 246.101562 224.390625 251.066406 224.316406 253.558594 223.976562 M 241 250.648438 C 219.324219 249.058594 202.0625 237.898438 193.3125 219.8125 C 184.949219 202.527344 184.960938 177.300781 193.335938 159.832031 C 198.558594 148.945312 206.488281 141.035156 217.355469 135.875 C 225.71875 131.90625 232.578125 130.363281 243.101562 130.085938 C 250.378906 129.894531 252.609375 130.125 258.5 131.671875 C 268.996094 134.421875 278.3125 140.0625 282.566406 146.242188 L 283.832031 148.078125 L 283.917969 116.207031 L 284.003906 84.332031 L 312.664062 84.332031 L 312.664062 248.332031 L 285.789062 248.332031 L 285.023438 241.582031 C 284.601562 237.871094 284.15625 234.324219 284.035156 233.703125 L 283.816406 232.570312 L 282.878906 233.992188 C 281.480469 236.105469 276.867188 240.789062 274.363281 242.640625 C 268.113281 247.257812 260.746094 249.835938 251.5 250.644531 C 247.121094 251.027344 246.179688 251.027344 241 250.648438 M 369.164062 251.941406 C 364.785156 251.5 358.335938 250.132812 354.332031 248.800781 C 332.453125 241.507812 319.042969 224.226562 316.339844 199.832031 C 315.910156 195.972656 315.910156 186.359375 316.339844 182.5 C 317.945312 168.003906 322.949219 156.566406 331.585938 147.625 C 340.296875 138.605469 351.074219 133.183594 365 130.816406 C 371.921875 129.636719 384.472656 129.820312 391.164062 131.195312 C 398.75 132.753906 407.125 136.84375 413.855469 142.269531 L 414.8125 143.042969 L 412.953125 144.671875 C 408.761719 148.351562 403.820312 155.027344 400.933594 160.914062 C 400.011719 162.796875 399.199219 164.332031 399.125 164.332031 C 399.050781 164.332031 398.113281 163.730469 397.035156 162.996094 C 394.269531 161.109375 389.324219 158.847656 386 157.945312 C 382.152344 156.90625 373.515625 156.824219 369.664062 157.796875 C 363.214844 159.421875 358.796875 161.886719 354.34375 166.34375 C 347.761719 172.921875 344.664062 180.914062 344.664062 191.332031 C 344.664062 201.101562 347.527344 208.972656 353.300781 215.089844 C 358.484375 220.585938 365.285156 223.761719 373.855469 224.683594 C 381.652344 225.523438 390.730469 223.554688 397.082031 219.644531 C 397.996094 219.085938 398.769531 218.675781 398.808594 218.730469 C 398.847656 218.785156 399.390625 220.03125 400.019531 221.5 C 402.46875 227.226562 406.714844 233.398438 411.566406 238.289062 C 412.90625 239.636719 414 240.789062 414 240.847656 C 414 241.171875 408.019531 244.816406 405.046875 246.308594 C 395.152344 251.273438 382.40625 253.273438 369.164062 251.941406 M 622.332031 270.125 C 622.332031 270.011719 623.015625 268.960938 623.851562 267.789062 C 625.335938 265.707031 625.398438 265.664062 626.902344 265.664062 L 628.4375 265.664062 L 627.8125 266.414062 C 625.605469 269.074219 624.144531 270.332031 623.261719 270.332031 C 622.75 270.332031 622.332031 270.238281 622.332031 270.125 M 356 284.332031 L 356 272.664062 L 370.332031 272.664062 L 370.332031 274.664062 L 358.332031 274.664062 L 358.332031 283 L 369.664062 283 L 369.664062 285 L 358.332031 285 L 358.332031 294 L 370.664062 294 L 370.664062 296 L 356 296 Z M 342.976562 293.480469 C 346.980469 292.355469 349.589844 289.230469 349.914062 285.175781 C 350.160156 282.160156 349.351562 279.972656 347.195312 277.820312 C 345.046875 275.671875 343.273438 275.042969 338.582031 274.769531 L 335 274.5625 L 335 294 L 338.0625 294 C 339.824219 294 341.910156 293.777344 342.976562 293.480469 M 332.332031 284.320312 L 332.332031 272.597656 L 337.914062 272.71875 C 343.351562 272.832031 343.558594 272.863281 345.683594 273.867188 C 348.65625 275.277344 350.121094 276.65625 351.402344 279.253906 C 352.386719 281.253906 352.484375 281.730469 352.472656 284.476562 C 352.464844 286.828125 352.304688 287.847656 351.753906 289.070312 C 350.707031 291.398438 348.335938 293.753906 345.910156 294.871094 C 343.914062 295.796875 343.605469 295.835938 338.082031 295.9375 L 332.332031 296.042969 Z M 300.664062 287.414062 C 300.664062 287.171875 296.019531 275.929688 295.835938 275.730469 C 295.785156 275.675781 295.285156 276.726562 294.726562 278.066406 C 294.171875 279.402344 293.035156 282.113281 292.210938 284.082031 L 290.707031 287.664062 L 295.6875 287.664062 C 298.425781 287.664062 300.664062 287.554688 300.664062 287.414062 M 284.664062 295.898438 C 284.664062 295.84375 286.898438 290.628906 289.625 284.316406 L 294.585938 272.832031 L 297.136719 272.832031 L 302.066406 284.324219 C 304.78125 290.644531 307 295.863281 307 295.925781 C 307 295.988281 306.386719 295.992188 305.632812 295.933594 L 304.265625 295.832031 L 303.050781 292.917969 L 301.832031 290.007812 L 289.761719 290 L 288.519531 293 L 287.273438 296 L 285.972656 296 C 285.253906 296 284.664062 295.953125 284.664062 295.898438 Z M 280.332031 284.332031 L 280.332031 272.664062 L 282.664062 272.664062 L 282.664062 296 L 280.332031 296 Z M 234.664062 284.332031 L 234.664062 272.664062 L 237.636719 272.664062 L 244.402344 282.582031 L 251.164062 292.5 L 251.34375 272.664062 L 253.664062 272.664062 L 253.664062 296 L 252.082031 295.988281 L 250.5 295.980469 L 237.164062 276.222656 L 237.078125 286.113281 L 236.988281 296 L 234.664062 296 Z M 216.664062 284.332031 L 216.664062 272.664062 L 231.332031 272.664062 L 231.332031 274.652344 L 225.25 274.742188 L 219.164062 274.832031 L 219.164062 282.832031 L 224.75 282.925781 L 230.332031 283.015625 L 230.332031 285 L 219 285 L 219 294 L 231.664062 294 L 231.664062 296 L 216.664062 296 Z M 209.664062 284.332031 L 209.664062 272.664062 L 212 272.664062 L 212 296 L 209.664062 296 Z M 409 287.507812 C 409 287.296875 404.296875 275.871094 404.140625 275.703125 C 404.074219 275.632812 403.875 275.933594 403.703125 276.371094 C 403.527344 276.808594 402.40625 279.527344 401.210938 282.414062 L 399.03125 287.664062 L 404.015625 287.664062 C 406.757812 287.664062 409 287.59375 409 287.507812 M 386.582031 296.09375 L 380.332031 295.984375 L 380.332031 272.664062 L 382.664062 272.664062 L 382.664062 294.015625 L 388.238281 293.925781 L 393.808594 293.832031 L 402.878906 272.832031 L 405.429688 272.832031 L 415.289062 295.832031 L 414.28125 295.941406 C 413.722656 295.996094 413.089844 295.976562 412.867188 295.890625 C 412.648438 295.808594 411.949219 294.449219 411.316406 292.871094 L 410.164062 290.003906 L 404.113281 290.003906 L 398.058594 290 L 396.816406 293 C 396.132812 294.648438 395.386719 296 395.160156 296 C 394.933594 296 394.320312 296.046875 393.789062 296.101562 C 393.265625 296.15625 390.019531 296.15625 386.582031 296.09375 Z M 640 284.5 L 640 272.332031 L 643.238281 272.332031 L 650.203125 282.53125 L 657.164062 292.730469 L 657.34375 272.332031 L 660 272.332031 L 660 296.664062 L 656.722656 296.664062 L 649.777344 286.386719 L 642.832031 276.105469 L 642.746094 286.386719 L 642.65625 296.664062 L 640 296.664062 Z M 605.664062 284.5 L 605.664062 272.332031 L 608 272.332031 L 608 296.664062 L 605.664062 296.664062 Z M 574.671875 287.75 C 574.683594 287.289062 569.835938 275.675781 569.632812 275.671875 C 569.464844 275.664062 568.304688 278.355469 564.769531 286.914062 L 564.324219 288 L 569.496094 288 C 572.339844 288 574.667969 287.886719 574.671875 287.75 M 558.046875 296.398438 C 558.113281 296.230469 560.480469 290.746094 563.304688 284.210938 L 568.445312 272.332031 L 570.910156 272.332031 L 575.671875 283.414062 C 578.292969 289.511719 580.640625 294.988281 580.890625 295.582031 L 581.34375 296.664062 L 578.453125 296.664062 L 575.890625 290.320312 L 569.589844 290.410156 L 563.285156 290.5 L 562.039062 293.5 L 560.789062 296.5 L 559.359375 296.605469 C 558.574219 296.660156 557.984375 296.570312 558.046875 296.398438 M 550.332031 285.664062 L 550.332031 274.664062 L 542.332031 274.664062 L 542.332031 272.332031 L 561 272.332031 L 561 274.664062 L 553 274.664062 L 553 296.664062 L 550.332031 296.664062 Z M 514.578125 282.558594 C 516.058594 281.777344 516.777344 280.554688 516.777344 278.832031 C 516.777344 275.746094 515.03125 274.664062 510.03125 274.664062 L 506.664062 274.664062 L 506.664062 278.777344 C 506.664062 281.039062 506.777344 283.003906 506.914062 283.144531 C 507.390625 283.625 513.433594 283.164062 514.578125 282.558594 M 504.332031 284.464844 L 504.332031 272.261719 L 509.414062 272.394531 C 514.878906 272.539062 516.203125 272.902344 517.894531 274.71875 C 520.019531 277 519.808594 281.195312 517.457031 283.394531 C 515.996094 284.757812 514.839844 285.085938 510.664062 285.300781 L 506.832031 285.5 L 506.652344 296.664062 L 504.332031 296.664062 Z M 475.664062 284.5 L 475.664062 272.332031 L 479.5 272.347656 L 483.484375 282.171875 C 485.675781 287.578125 487.550781 292 487.652344 292 C 487.753906 292 489.613281 287.574219 491.789062 282.164062 L 495.746094 272.332031 L 499.664062 272.332031 L 499.664062 296.664062 L 497.007812 296.664062 L 496.921875 286.421875 L 496.832031 276.175781 L 492.605469 286.339844 C 488.800781 295.492188 488.304688 296.5 487.613281 296.5 C 486.925781 296.5 486.429688 295.496094 482.648438 286.417969 C 480.335938 280.871094 478.347656 276.234375 478.222656 276.113281 C 478.101562 275.988281 478 280.5625 478 286.277344 L 478 296.664062 L 475.664062 296.664062 Z M 311.5 296.273438 C 310.1875 295.785156 307.761719 294.121094 307.582031 293.585938 C 307.503906 293.355469 307.886719 292.835938 308.433594 292.429688 L 309.425781 291.695312 L 310.046875 292.484375 C 310.390625 292.917969 311.316406 293.585938 312.105469 293.96875 C 315.90625 295.808594 320.265625 293.402344 319.882812 289.675781 C 319.695312 287.816406 318.542969 286.699219 315.785156 285.699219 C 314.710938 285.304688 313.191406 284.75 312.402344 284.460938 C 308.535156 283.039062 306.890625 279.148438 308.671875 275.652344 C 310.339844 272.386719 315.851562 271.054688 319.660156 272.996094 C 320.777344 273.566406 322.261719 274.910156 321.96875 275.089844 C 321.894531 275.136719 321.511719 275.441406 321.121094 275.773438 C 320.425781 276.355469 320.367188 276.34375 318.894531 275.304688 C 316.097656 273.332031 312.226562 274.042969 310.882812 276.773438 C 309.570312 279.4375 311.117188 281.660156 315.21875 283.007812 C 318.578125 284.113281 320.511719 285.175781 321.386719 286.40625 C 322.039062 287.324219 322.164062 287.910156 322.164062 290.050781 C 322.164062 292.402344 322.085938 292.703125 321.148438 293.863281 C 319.625 295.746094 317.953125 296.480469 315 296.570312 C 313.625 296.613281 312.050781 296.480469 311.5 296.273438 M 265.429688 296.203125 C 261.984375 295.078125 259.5625 292.941406 258.035156 289.679688 C 257.269531 288.050781 257.167969 287.417969 257.175781 284.332031 C 257.183594 281.203125 257.28125 280.632812 258.101562 278.945312 C 259.324219 276.4375 261.359375 274.453125 263.976562 273.222656 C 267.988281 271.335938 273.34375 271.9375 276.363281 274.621094 L 277.769531 275.867188 L 276.648438 276.578125 L 275.53125 277.285156 L 274.308594 276.183594 C 272.664062 274.699219 271.050781 274.214844 268.371094 274.40625 C 265.632812 274.605469 263.84375 275.484375 262.058594 277.511719 C 257.679688 282.488281 259.390625 291.113281 265.28125 293.761719 C 266.398438 294.265625 267.488281 294.457031 269.164062 294.445312 C 271.882812 294.425781 273.488281 293.824219 275.097656 292.210938 L 276.21875 291.089844 L 277.132812 291.757812 L 278.046875 292.421875 L 276.9375 293.574219 C 275.027344 295.566406 272.902344 296.4375 269.664062 296.554688 C 267.890625 296.621094 266.308594 296.488281 265.429688 296.203125 M 195.144531 296.371094 C 193.398438 295.921875 190.683594 294.265625 189.445312 292.894531 C 188.789062 292.171875 187.859375 290.738281 187.378906 289.707031 C 186.601562 288.050781 186.5 287.429688 186.507812 284.332031 C 186.515625 281.203125 186.613281 280.632812 187.4375 278.945312 C 188.65625 276.4375 190.691406 274.453125 193.308594 273.222656 C 197.277344 271.355469 202.570312 271.925781 205.632812 274.546875 L 207.027344 275.742188 L 205.960938 276.527344 L 204.894531 277.316406 L 203.65625 276.199219 C 201.996094 274.699219 200.390625 274.214844 197.703125 274.40625 C 194.96875 274.605469 193.175781 275.484375 191.390625 277.511719 C 187.003906 282.496094 188.710938 291.105469 194.613281 293.761719 C 195.730469 294.265625 196.820312 294.457031 198.5 294.445312 C 201.21875 294.425781 202.820312 293.824219 204.433594 292.210938 L 205.554688 291.089844 L 206.464844 291.757812 L 207.378906 292.421875 L 206.273438 293.574219 C 204.351562 295.574219 202.238281 296.4375 199 296.542969 C 197.441406 296.59375 195.707031 296.515625 195.144531 296.371094 M 627.5 294.449219 C 629.832031 293.652344 632.375 291.054688 633.324219 288.5 C 634.277344 285.929688 634.148438 282.363281 633.007812 279.738281 C 631.378906 275.996094 627.457031 273.738281 623.175781 274.082031 C 617.5 274.535156 613.550781 279.539062 614.109375 285.554688 C 614.753906 292.453125 621.0625 296.640625 627.5 294.449219 M 620.914062 296.972656 C 617.296875 296.117188 614.210938 293.5625 612.554688 290.050781 C 611.601562 288.027344 611.511719 287.539062 611.511719 284.5 C 611.511719 281.46875 611.605469 280.96875 612.539062 279 C 615.644531 272.433594 623.351562 269.886719 630.015625 273.21875 C 632.601562 274.511719 634.21875 276.1875 635.585938 278.988281 C 636.402344 280.652344 636.492188 281.191406 636.492188 284.5 C 636.492188 288.621094 635.980469 290.234375 633.839844 292.847656 C 630.960938 296.359375 625.589844 298.074219 620.914062 296.972656 M 590.5 296.886719 C 587.007812 295.976562 584.226562 293.742188 582.574219 290.511719 C 581.703125 288.808594 581.523438 288.03125 581.402344 285.464844 C 581.164062 280.488281 582.679688 276.886719 586.085938 274.324219 C 588.480469 272.519531 590.664062 271.839844 594 271.859375 C 597.050781 271.878906 599.035156 272.519531 601.230469 274.191406 C 602.550781 275.199219 602.613281 275.738281 601.496094 276.472656 C 600.6875 277.003906 600.609375 276.984375 599.410156 276.023438 C 596.945312 274.046875 593.992188 273.542969 590.671875 274.527344 C 588.164062 275.273438 585.273438 278.164062 584.53125 280.671875 C 583.859375 282.921875 583.851562 286.046875 584.507812 288.253906 C 585.230469 290.6875 587.789062 293.414062 590.195312 294.316406 C 593.644531 295.605469 597.546875 294.988281 599.808594 292.789062 C 601.042969 291.59375 601.84375 291.507812 602.652344 292.484375 C 603.191406 293.132812 601.074219 295.183594 598.777344 296.234375 C 596.605469 297.226562 592.929688 297.515625 590.5 296.886719 Z M 528.808594 297.039062 C 527.027344 296.578125 525.039062 295.261719 524.121094 293.933594 C 522.570312 291.695312 522.332031 289.953125 522.332031 280.761719 L 522.332031 272.332031 L 524.609375 272.332031 L 524.746094 280.914062 C 524.886719 289.804688 525.019531 290.761719 526.433594 292.789062 C 527.304688 294.035156 529.4375 294.984375 531.394531 294.992188 C 533.398438 295 534.566406 294.550781 535.925781 293.238281 C 537.753906 291.476562 538 289.972656 538 280.605469 L 538 272.332031 L 540.738281 272.332031 L 540.578125 281.25 C 540.484375 286.515625 540.265625 290.660156 540.039062 291.371094 C 539.464844 293.195312 537.867188 295.1875 536.191406 296.167969 C 535.039062 296.84375 534.128906 297.078125 532.261719 297.179688 C 530.925781 297.246094 529.371094 297.1875 528.808594 297.039062 M 464.289062 293.824219 C 467.691406 291.972656 469.476562 288.769531 469.492188 284.492188 C 469.496094 282.132812 469.371094 281.558594 468.402344 279.585938 C 467.136719 277.019531 465.613281 275.613281 463.070312 274.660156 C 460.941406 273.863281 458.730469 273.820312 456.335938 274.527344 C 453.789062 275.285156 451.03125 278.09375 450.191406 280.78125 C 449.386719 283.363281 449.578125 287.25 450.617188 289.398438 C 451.621094 291.46875 453.796875 293.535156 455.816406 294.335938 C 458.320312 295.328125 461.925781 295.113281 464.289062 293.824219 M 456.007812 296.820312 C 452.339844 295.789062 449.679688 293.527344 448.046875 290.039062 C 447.261719 288.371094 447.164062 287.765625 447.164062 284.492188 C 447.164062 281.019531 447.226562 280.699219 448.253906 278.613281 C 449.5625 275.953125 451.328125 274.277344 454.292969 272.890625 C 456.269531 271.960938 456.816406 271.855469 459.5 271.871094 C 463.339844 271.898438 465.628906 272.738281 468.152344 275.042969 C 474.742188 281.066406 473.105469 292.289062 465.082031 296.078125 C 462.488281 297.304688 458.808594 297.605469 456.007812 296.820312 M 433.332031 296.804688 C 427.652344 295.300781 423.957031 289.738281 424.433594 283.402344 C 424.980469 276.152344 431.171875 271 438.339844 271.832031 C 440.578125 272.09375 443.808594 273.519531 444.9375 274.746094 L 445.707031 275.585938 L 444.808594 276.292969 C 443.695312 277.167969 443.589844 277.167969 442.800781 276.296875 C 441.460938 274.8125 439.667969 274.179688 436.832031 274.179688 C 434.589844 274.179688 433.894531 274.320312 432.46875 275.066406 C 430.488281 276.105469 428.851562 277.851562 427.871094 279.984375 C 427.324219 281.164062 427.167969 282.15625 427.167969 284.5 C 427.167969 287.113281 427.285156 287.746094 428.101562 289.40625 C 429.25 291.742188 431.488281 293.777344 433.738281 294.523438 C 437.078125 295.632812 441.519531 294.65625 443.382812 292.40625 C 444.136719 291.496094 444.199219 291.480469 445.082031 291.980469 C 446.183594 292.605469 446.191406 292.667969 445.289062 293.808594 C 443.003906 296.714844 437.867188 298.003906 433.332031 296.804688 Z M 521.332031 319 L 521.332031 306.664062 L 536.664062 306.664062 L 536.664062 309 L 524 309 L 524 317.332031 L 535.664062 317.332031 L 535.664062 319.664062 L 524 319.664062 L 524 329 L 537 329 L 537 331.332031 L 521.332031 331.332031 Z M 505.332031 319 L 505.332031 306.664062 L 508 306.664062 L 508 329 L 519.332031 329 L 519.332031 331.332031 L 505.332031 331.332031 Z M 498.332031 319 L 498.332031 306.664062 L 500.664062 306.664062 L 500.664062 331.332031 L 498.332031 331.332031 Z M 475 319 L 475 306.664062 L 477.664062 306.664062 L 477.664062 317.347656 L 484.25 317.257812 L 490.832031 317.164062 L 490.925781 311.914062 L 491.015625 306.664062 L 493.332031 306.664062 L 493.332031 331.332031 L 491 331.332031 L 491 319.664062 L 477.664062 319.664062 L 477.664062 331.332031 L 475 331.332031 Z M 426 319 L 426 306.664062 L 441.332031 306.664062 L 441.332031 309 L 428.664062 309 L 428.664062 317.332031 L 440.332031 317.332031 L 440.332031 319.664062 L 428.664062 319.664062 L 428.664062 329 L 441.664062 329 L 441.664062 331.332031 L 426 331.332031 Z M 414.554688 327.648438 C 417.222656 326.285156 418.742188 324.488281 419.539062 321.753906 C 420.925781 316.976562 418.605469 311.96875 414.039062 309.886719 C 412.796875 309.324219 411.675781 309.160156 408.25 309.058594 L 404 308.933594 L 404 318.742188 C 404 324.140625 404.113281 328.671875 404.25 328.8125 C 404.386719 328.953125 406.253906 329.007812 408.402344 328.933594 C 412.058594 328.804688 412.441406 328.726562 414.554688 327.648438 M 401.664062 319 L 401.664062 306.664062 L 406.597656 306.664062 C 413.507812 306.664062 416.007812 307.390625 419.113281 310.300781 C 419.816406 310.960938 420.859375 312.398438 421.433594 313.5 C 422.398438 315.34375 422.476562 315.757812 422.488281 318.839844 C 422.5 321.949219 422.425781 322.328125 421.410156 324.394531 C 418.929688 329.433594 414.769531 331.316406 406.082031 331.328125 L 401.664062 331.332031 Z M 382.5 328.046875 C 385.734375 326.597656 387.964844 323.585938 388.507812 319.929688 C 388.875 317.425781 387.691406 314.007812 385.796875 312.113281 C 383.410156 309.726562 381.902344 309.207031 376.914062 309.058594 L 372.664062 308.933594 L 372.664062 329.078125 L 376.75 328.9375 C 380.042969 328.820312 381.15625 328.648438 382.5 328.046875 M 370.332031 318.964844 L 370.332031 306.601562 L 376.101562 306.714844 L 381.871094 306.832031 L 384.414062 308.09375 C 388.304688 310.015625 390.292969 312.632812 391.015625 316.789062 C 392.222656 323.707031 387.957031 329.65625 380.855469 330.96875 C 379.765625 331.167969 376.953125 331.332031 374.605469 331.332031 L 370.332031 331.332031 Z M 361.664062 322.199219 C 361.664062 322.03125 356.640625 309.863281 356.519531 309.742188 C 356.449219 309.667969 352.269531 319.621094 351.480469 321.75 C 351.277344 322.289062 351.648438 322.332031 356.464844 322.332031 C 359.324219 322.332031 361.664062 322.273438 361.664062 322.199219 M 344.902344 330.769531 C 345.027344 330.4375 347.402344 324.914062 350.179688 318.5 L 355.226562 306.832031 L 356.527344 306.734375 L 357.832031 306.636719 L 363 318.691406 C 365.839844 325.320312 368.21875 330.886719 368.285156 331.0625 C 368.351562 331.238281 367.765625 331.328125 366.953125 331.269531 L 365.507812 331.164062 L 364.148438 328 L 362.785156 324.832031 L 350.214844 324.832031 L 348.851562 328 L 347.492188 331.164062 L 346.082031 331.269531 C 344.839844 331.359375 344.699219 331.300781 344.902344 330.769531 M 336.777344 327.71875 C 339.308594 326.472656 340.726562 324.933594 341.671875 322.402344 C 343.042969 318.746094 342.234375 314.90625 339.507812 312.125 C 337.101562 309.671875 335.09375 309 330.152344 309 L 326.332031 309 L 326.332031 318.777344 C 326.332031 324.15625 326.445312 328.671875 326.582031 328.8125 C 326.722656 328.953125 328.578125 329.007812 330.707031 328.933594 C 334.261719 328.8125 334.761719 328.710938 336.777344 327.71875 M 324 318.964844 L 324 306.601562 L 329.75 306.738281 C 334.722656 306.859375 335.757812 306.976562 337.414062 307.628906 C 339.9375 308.617188 342.703125 311.167969 343.902344 313.601562 C 344.742188 315.316406 344.832031 315.839844 344.832031 319 C 344.828125 322.34375 344.78125 322.59375 343.699219 324.589844 C 342.355469 327.070312 340.566406 328.777344 338.148438 329.886719 C 335.773438 330.96875 333.324219 331.328125 328.25 331.328125 L 324 331.332031 Z M 316.664062 319 L 316.664062 306.664062 L 319.332031 306.664062 L 319.332031 331.332031 L 316.664062 331.332031 Z M 290.410156 316.902344 C 292.070312 316.195312 293.082031 314.558594 292.882812 312.902344 C 292.515625 309.917969 290.839844 308.960938 285.851562 308.882812 L 282.5 308.832031 L 282.3125 317.753906 L 285.738281 317.59375 C 287.78125 317.496094 289.667969 317.21875 290.410156 316.902344 M 280 318.96875 L 280 306.609375 L 285.25 306.722656 C 291.222656 306.855469 292.921875 307.351562 294.355469 309.367188 C 295.398438 310.828125 295.671875 314.378906 294.863281 315.9375 C 294.078125 317.460938 292.6875 318.632812 291.121094 319.09375 C 290.359375 319.316406 289.683594 319.589844 289.621094 319.703125 C 289.554688 319.8125 291 322.355469 292.832031 325.355469 C 294.664062 328.355469 296.21875 330.929688 296.277344 331.070312 C 296.339844 331.214844 295.707031 331.332031 294.875 331.332031 L 293.359375 331.332031 L 286.5 319.832031 L 284.414062 319.734375 L 282.332031 319.632812 L 282.332031 331.332031 L 280 331.332031 Z M 261 319 L 261 306.664062 L 276.332031 306.664062 L 276.332031 309 L 263.664062 309 L 263.664062 317.332031 L 275.332031 317.332031 L 275.332031 319.664062 L 263.664062 319.664062 L 263.664062 329 L 276.664062 329 L 276.664062 331.332031 L 261 331.332031 Z M 243.339844 320.597656 C 241.082031 314.679688 238.960938 309.121094 238.621094 308.25 L 238.011719 306.664062 L 240.851562 306.664062 L 244.640625 316.914062 C 246.726562 322.554688 248.53125 327.28125 248.65625 327.421875 C 248.777344 327.5625 250.648438 322.949219 252.8125 317.171875 L 256.746094 306.664062 L 258.039062 306.664062 C 258.75 306.664062 259.332031 306.777344 259.332031 306.914062 C 259.328125 307.054688 257.261719 312.566406 254.730469 319.164062 L 250.132812 331.164062 L 247.445312 331.367188 Z M 234 319 L 234 306.664062 L 236.332031 306.664062 L 236.332031 331.332031 L 234 331.332031 Z M 209.332031 318.980469 L 209.332031 306.628906 L 210.914062 306.730469 L 212.5 306.832031 L 226.5 327.363281 L 226.589844 317.015625 L 226.675781 306.664062 L 229 306.664062 L 229 331.332031 L 226.074219 331.332031 L 218.953125 320.804688 L 211.832031 310.273438 L 211.746094 320.804688 L 211.65625 331.332031 L 209.332031 331.332031 Z M 458.949219 331.203125 C 455.5625 329.992188 453.191406 327.859375 451.699219 324.679688 C 450.917969 323.011719 450.832031 322.445312 450.832031 318.832031 C 450.832031 314.910156 450.855469 314.789062 451.972656 312.730469 C 454.890625 307.347656 461.027344 304.828125 466.882812 306.609375 C 469.667969 307.453125 472.269531 309.4375 471.621094 310.21875 C 470.691406 311.339844 469.972656 311.433594 469.050781 310.550781 C 466.847656 308.445312 463.097656 307.773438 459.808594 308.890625 C 457.472656 309.6875 454.636719 312.578125 453.835938 314.988281 C 452.070312 320.300781 454.257812 326.292969 458.757812 328.464844 C 462.488281 330.265625 466.425781 329.824219 469.171875 327.292969 C 470.597656 325.976562 470.636719 325.964844 471.476562 326.515625 C 471.949219 326.824219 472.332031 327.210938 472.332031 327.371094 C 472.332031 328.078125 469.464844 330.359375 467.796875 330.984375 C 465.652344 331.785156 460.910156 331.902344 458.949219 331.203125 M 301.484375 331.238281 C 299.933594 330.617188 298.027344 329.339844 297.679688 328.6875 C 297.429688 328.226562 297.578125 327.945312 298.367188 327.359375 L 299.367188 326.621094 L 300.664062 327.789062 C 303.125 330.015625 306.621094 330.230469 308.828125 328.292969 C 311.347656 326.078125 311.050781 322.816406 308.179688 321.175781 C 307.4375 320.753906 305.628906 320.015625 304.15625 319.535156 C 299.828125 318.121094 298 316.140625 298 312.867188 C 298 310.175781 299.199219 308.304688 301.832031 306.886719 C 302.898438 306.3125 303.734375 306.167969 306 306.167969 C 308.472656 306.167969 309.027344 306.28125 310.359375 307.066406 C 311.199219 307.558594 312.09375 308.210938 312.351562 308.519531 C 312.757812 309.011719 312.695312 309.171875 311.84375 309.851562 L 310.875 310.625 L 309.761719 309.648438 C 308.851562 308.847656 306.636719 308.09375 305.664062 308.246094 C 305.574219 308.261719 304.949219 308.363281 304.277344 308.46875 C 300.664062 309.046875 299.277344 313.492188 301.996094 315.78125 C 302.535156 316.234375 304.394531 317.078125 306.132812 317.65625 C 311.410156 319.414062 313.003906 321.09375 312.996094 324.882812 C 312.988281 327.316406 312.066406 329.070312 310.054688 330.484375 C 308.726562 331.417969 308.363281 331.503906 305.554688 331.574219 C 303.75 331.617188 302.085938 331.480469 301.484375 331.238281 M 191.332031 331.136719 C 189.824219 330.484375 188.128906 328.847656 187.222656 327.164062 C 186.535156 325.902344 186.496094 325.335938 186.398438 316.25 L 186.296875 306.664062 L 188.664062 306.664062 L 188.675781 314.75 C 188.679688 319.195312 188.835938 323.507812 189.023438 324.332031 C 189.808594 327.78125 191.980469 329.503906 195.53125 329.492188 C 198.042969 329.488281 199.9375 328.378906 201.078125 326.25 C 201.800781 324.890625 201.835938 324.453125 201.9375 315.75 L 202.039062 306.664062 L 204.664062 306.664062 L 204.664062 314.554688 C 204.664062 318.894531 204.5 323.402344 204.296875 324.574219 C 203.789062 327.472656 202.375 329.527344 200.046875 330.738281 C 198.484375 331.546875 197.890625 331.664062 195.378906 331.652344 C 193.570312 331.644531 192.066406 331.453125 191.332031 331.136719 M 82.304688 59.988281 C 84.152344 57.597656 85.664062 55.457031 85.664062 55.230469 C 85.664062 54.929688 80.664062 41.902344 78.875 37.542969 C 78.789062 37.335938 78.707031 43.277344 78.691406 50.75 C 78.679688 58.21875 78.726562 64.332031 78.804688 64.332031 C 78.878906 64.332031 80.453125 62.378906 82.304688 59.988281 M 77.332031 50.765625 C 77.332031 43.304688 77.207031 37.34375 77.050781 37.515625 C 76.898438 37.691406 75.390625 41.921875 73.707031 46.914062 L 70.640625 55.996094 L 73.203125 59.414062 C 75.6875 62.726562 77 64.332031 77.226562 64.332031 C 77.285156 64.332031 77.332031 58.226562 77.332031 50.765625 M 72.414062 60.800781 L 69.5 56.933594 L 64.53125 57.132812 C 61.796875 57.242188 57.757812 57.332031 55.558594 57.332031 C 53.355469 57.332031 51.640625 57.417969 51.742188 57.519531 C 51.96875 57.742188 74.316406 64.617188 74.914062 64.644531 C 75.144531 64.65625 74.019531 62.925781 72.414062 60.800781 M 91.917969 61.582031 C 98.96875 59.410156 102.792969 58.085938 102.421875 57.941406 C 102.097656 57.816406 99.207031 57.472656 96 57.175781 C 92.789062 56.882812 89.476562 56.554688 88.632812 56.449219 L 87.101562 56.261719 L 83.71875 60.628906 C 81.859375 63.03125 80.449219 65 80.585938 65 C 80.71875 65 85.820312 63.460938 91.917969 61.582031 M 97.5 64.796875 C 100.800781 62.121094 103.632812 59.808594 103.796875 59.652344 C 103.960938 59.496094 102.6875 59.808594 100.964844 60.347656 C 99.242188 60.882812 94.121094 62.476562 89.582031 63.882812 C 85.042969 65.289062 81.402344 66.511719 81.488281 66.601562 C 81.667969 66.78125 90.660156 69.605469 91.164062 69.640625 C 91.351562 69.652344 94.199219 67.472656 97.5 64.796875 M 70.632812 68.175781 C 73.269531 67.355469 75.46875 66.644531 75.519531 66.589844 C 75.574219 66.535156 70.289062 64.871094 63.777344 62.890625 C 57.265625 60.90625 51.890625 59.332031 51.832031 59.390625 C 51.726562 59.503906 65.363281 69.605469 65.671875 69.644531 C 65.765625 69.65625 67.996094 68.996094 70.632812 68.175781 M 68.050781 78.5 C 75.765625 68.464844 76.242188 67.824219 75.832031 68.058594 C 75.648438 68.164062 73.527344 68.867188 71.113281 69.625 L 66.726562 71 L 65.898438 73.417969 C 65.441406 74.746094 64.144531 78.457031 63.019531 81.664062 C 61.890625 84.875 61.179688 87.273438 61.4375 87 C 61.695312 86.726562 64.671875 82.898438 68.050781 78.5 M 95.667969 88.082031 C 95.503906 87.578125 94.296875 83.640625 92.988281 79.332031 C 91.675781 75.023438 90.480469 71.371094 90.332031 71.214844 C 89.859375 70.714844 79.660156 67.71875 79.921875 68.152344 C 80.339844 68.855469 95.734375 89 95.851562 89 C 95.914062 89 95.832031 88.585938 95.667969 88.082031 M 91.253906 85.582031 C 89.53125 83.335938 86.199219 78.949219 83.84375 75.832031 C 81.488281 72.714844 79.359375 69.945312 79.113281 69.679688 C 78.738281 69.269531 78.667969 69.980469 78.679688 74.179688 L 78.695312 79.164062 L 86.429688 84.414062 C 90.683594 87.304688 94.214844 89.664062 94.273438 89.664062 C 94.328125 89.664062 92.972656 87.828125 91.253906 85.582031 M 76.75 79.746094 C 77.257812 79.296875 77.332031 78.570312 77.332031 74.207031 C 77.332031 69.277344 77.320312 69.195312 76.703125 69.84375 C 75.882812 70.699219 61.332031 89.609375 61.332031 89.820312 C 61.332031 90.011719 75.917969 80.480469 76.75 79.746094 M 81.128906 211.859375 C 81.03125 211.597656 81.113281 211.074219 81.320312 210.691406 C 81.769531 209.851562 81.15625 209.734375 80.152344 210.46875 C 79.53125 210.921875 79.535156 210.953125 80.339844 211.621094 C 81.335938 212.453125 81.359375 212.460938 81.128906 211.859375 M 100.308594 156.636719 L 100.945312 154.164062 L 98.988281 151.09375 L 97.035156 148.019531 L 97.886719 146.5 C 99.371094 143.839844 98.59375 142.882812 94.972656 142.914062 C 91.6875 142.941406 89.242188 144.777344 88.316406 147.90625 C 87.632812 150.21875 88.667969 150.785156 91.832031 149.832031 C 92.390625 149.664062 93.0625 150.421875 95.953125 154.5 C 97.855469 157.175781 99.46875 159.308594 99.539062 159.238281 C 99.609375 159.164062 99.957031 157.996094 100.308594 156.636719 M 111.277344 170.0625 C 111.21875 169.914062 110.265625 168.398438 109.164062 166.699219 L 107.164062 163.605469 L 107.066406 165.628906 C 106.953125 167.96875 107.296875 168.785156 108.769531 169.683594 C 109.828125 170.328125 111.488281 170.578125 111.277344 170.0625 M 120.492188 178.683594 C 121.628906 176.480469 120.714844 173.6875 118.46875 172.523438 C 117.394531 171.964844 116.5 171.84375 113.335938 171.824219 C 110.402344 171.800781 109.246094 171.664062 108.425781 171.226562 C 105.824219 169.851562 105.070312 167.894531 105.644531 164.035156 C 106.324219 159.464844 107.679688 158.363281 110.015625 160.476562 C 110.742188 161.128906 111.414062 161.664062 111.507812 161.664062 C 111.765625 161.664062 112.347656 160.027344 112.636719 158.480469 L 112.890625 157.132812 L 111.378906 157.148438 C 110.074219 157.164062 109.800781 157.042969 109.351562 156.25 C 108.886719 155.425781 108.882812 155.242188 109.34375 154.414062 C 109.707031 153.765625 110.164062 153.46875 110.925781 153.394531 C 113.597656 153.136719 110.808594 151.566406 107.609375 151.527344 C 105.851562 151.503906 105.191406 151.644531 104.441406 152.195312 C 102.113281 153.914062 101.015625 157.863281 101.003906 164.546875 C 101 168.042969 101.140625 169.378906 101.6875 171.152344 C 103.070312 175.640625 105.964844 177.402344 110.734375 176.660156 C 116.386719 175.785156 116.433594 175.789062 117.941406 177.15625 C 118.691406 177.832031 119.394531 178.671875 119.507812 179.027344 C 119.777344 179.878906 119.890625 179.839844 120.492188 178.683594 M 120.160156 184.34375 C 120.269531 184.164062 119.371094 182.5 118.167969 180.640625 L 115.976562 177.261719 L 114.738281 177.492188 C 114.058594 177.617188 113.371094 177.839844 113.21875 177.988281 C 112.964844 178.238281 115.515625 182.117188 117.113281 183.914062 C 117.808594 184.695312 119.773438 184.96875 120.160156 184.34375 M 127.335938 190.25 C 128.261719 188.734375 128.1875 187.527344 127.121094 186.691406 C 125.671875 185.550781 124.011719 185.203125 122.03125 185.628906 C 121.078125 185.832031 119.535156 186 118.601562 186 C 116.800781 186 116.875 186.054688 114.238281 182.855469 L 113.433594 181.882812 L 112.34375 184.09375 C 111.148438 186.519531 111.160156 187.351562 112.40625 189.101562 C 113.589844 190.765625 114.851562 191.066406 119.621094 190.824219 C 123.0625 190.648438 125.273438 190.800781 126.589844 191.300781 C 126.636719 191.316406 126.972656 190.84375 127.335938 190.25 M 127.359375 194.871094 C 125.863281 192.652344 125.574219 192.394531 124.433594 192.25 C 123.734375 192.164062 123.117188 192.136719 123.054688 192.1875 C 122.890625 192.320312 125.566406 195.898438 126.074219 196.226562 C 126.519531 196.511719 128.308594 197.222656 128.761719 197.292969 C 128.902344 197.316406 128.273438 196.226562 127.359375 194.871094 M 133.335938 214.914062 C 133.335938 214.871094 133.476562 213.980469 133.648438 212.9375 C 134.011719 210.703125 133.613281 208.839844 132.65625 208.328125 C 131.707031 207.820312 131 206.238281 130.992188 204.597656 C 130.984375 203.011719 130.007812 200.574219 128.917969 199.414062 C 128.527344 198.996094 127.640625 198.507812 126.949219 198.320312 C 126.050781 198.078125 125.1875 197.410156 123.9375 195.988281 C 122.972656 194.894531 122.066406 194 121.921875 194 C 121.378906 194 120.335938 196.210938 120.335938 197.367188 C 120.332031 199.210938 121.535156 200.714844 123.601562 201.460938 C 124.5625 201.804688 125.949219 202.628906 126.683594 203.292969 C 127.847656 204.339844 128.125 204.886719 128.789062 207.40625 C 129.449219 209.910156 129.773438 210.542969 131.113281 211.976562 C 131.96875 212.890625 132.664062 213.945312 132.664062 214.320312 C 132.664062 214.691406 132.816406 215 133 215 C 133.183594 215 133.335938 214.960938 133.335938 214.914062 M 143.207031 219.484375 C 143.046875 219.070312 132.875 203.1875 132.453125 202.695312 C 132.386719 202.617188 132.332031 203.253906 132.332031 204.109375 C 132.332031 205.402344 132.519531 205.875 133.453125 206.914062 C 134.066406 207.601562 134.765625 208.539062 135.003906 209 C 135.746094 210.4375 142.792969 220 143.105469 220 C 143.269531 220 143.316406 219.769531 143.207031 219.484375 M 143.65625 221.914062 C 141.902344 221.257812 141.65625 221.007812 138.714844 216.941406 C 137.007812 214.585938 135.496094 212.730469 135.351562 212.820312 C 135.207031 212.910156 135 213.535156 134.890625 214.203125 C 134.667969 215.585938 133.515625 217 132.621094 217 C 131.9375 217 131.332031 216.050781 131.332031 214.984375 C 131.332031 214.566406 130.703125 213.636719 129.847656 212.792969 C 128.710938 211.671875 128.195312 210.804688 127.679688 209.128906 C 127.304688 207.917969 127 206.648438 127 206.308594 C 127 205.320312 124.863281 203.453125 123.039062 202.847656 C 118.746094 201.421875 117.523438 196.4375 120.59375 192.914062 C 121.074219 192.363281 120.929688 192.332031 117.96875 192.367188 C 113.613281 192.414062 112.042969 191.679688 110.632812 188.929688 C 109.683594 187.078125 109.835938 185.6875 111.285156 182.882812 L 112.574219 180.394531 L 111.945312 179.40625 C 111.347656 178.460938 111.191406 178.410156 108.546875 178.269531 C 105.101562 178.089844 103.121094 177.074219 101.628906 174.71875 C 100.179688 172.433594 99.65625 170.3125 99.433594 165.761719 L 99.234375 161.691406 L 95.59375 156.59375 L 91.953125 151.5 L 90.007812 151.613281 C 87.59375 151.75 86.664062 151.042969 86.675781 149.082031 C 86.6875 146.523438 88.605469 143.59375 91.164062 142.226562 C 93.085938 141.199219 97.535156 141.1875 98.890625 142.203125 C 99.707031 142.816406 99.828125 143.128906 99.808594 144.539062 C 99.792969 145.433594 99.589844 146.617188 99.351562 147.164062 C 98.945312 148.105469 99.003906 148.300781 100.347656 150.40625 L 101.773438 152.644531 L 103.035156 151.507812 C 104.484375 150.199219 105.917969 149.839844 108.699219 150.089844 C 111.25 150.324219 112.652344 151.15625 113.582031 152.996094 C 114.457031 154.714844 114.546875 156.878906 113.867188 159.761719 C 113.078125 163.125 111.8125 163.757812 109.398438 162.007812 C 108.644531 161.460938 107.945312 161.152344 107.839844 161.320312 C 107.738281 161.488281 108.914062 163.566406 110.460938 165.9375 L 113.265625 170.253906 L 115.550781 170.394531 C 119.882812 170.65625 122.039062 172.515625 122.273438 176.175781 C 122.386719 177.972656 122.277344 178.511719 121.511719 179.917969 L 120.613281 181.566406 L 121.289062 182.671875 C 121.890625 183.664062 122.128906 183.785156 123.585938 183.835938 C 125.519531 183.902344 128.371094 185.324219 129.027344 186.546875 C 129.683594 187.773438 129.503906 189.488281 128.546875 191.117188 L 127.691406 192.574219 L 136.179688 205.675781 C 141.179688 213.390625 144.816406 219.335938 145.023438 220.136719 C 145.214844 220.886719 145.449219 221.761719 145.542969 222.082031 C 145.636719 222.402344 145.664062 222.652344 145.605469 222.636719 C 145.546875 222.621094 144.671875 222.296875 143.65625 221.914062 M 154.332031 179.664062 L 154.332031 132.332031 L 78.664062 132.332031 L 78.664062 209.703125 L 79.40625 209.183594 C 80.3125 208.550781 84.808594 208.488281 85.878906 209.09375 C 86.273438 209.316406 87.195312 210.261719 87.929688 211.195312 C 88.660156 212.128906 90.230469 213.582031 91.414062 214.425781 C 95.246094 217.160156 98.496094 221.320312 99.875 225.25 L 100.488281 227 L 154.332031 227 Z M 65.011719 168.082031 C 60.210938 156.832031 59.011719 154.1875 58.773438 154.320312 C 58.550781 154.445312 55.113281 162.535156 52.570312 168.914062 L 52.003906 170.332031 L 65.96875 170.332031 Z M 54.472656 160.359375 C 58.511719 150.558594 58.625 150.21875 58.144531 149.289062 L 57.648438 148.332031 L 38.695312 148.332031 C 18.683594 148.332031 19.332031 148.285156 19.332031 149.691406 C 19.332031 149.875 27.15625 150 38.6875 150 L 58.046875 150 L 57.8125 150.75 C 57.6875 151.160156 55.933594 155.625 53.921875 160.664062 C 49.691406 171.253906 49.828125 170.886719 50.101562 170.652344 C 50.214844 170.554688 52.179688 165.921875 54.472656 160.359375 M 62.835938 179.707031 C 65.949219 178.261719 67.949219 175.875 68.496094 172.96875 C 68.675781 172.019531 68.449219 171.226562 67.308594 168.726562 C 66.53125 167.039062 65.84375 165.710938 65.773438 165.777344 C 65.707031 165.847656 66.085938 166.871094 66.617188 168.054688 C 67.144531 169.234375 67.683594 170.53125 67.8125 170.933594 L 68.046875 171.664062 L 59.050781 171.664062 C 52.164062 171.664062 50.015625 171.570312 49.886719 171.25 C 49.796875 171.019531 49.707031 171.390625 49.691406 172.070312 C 49.65625 173.867188 50.886719 176.863281 52.203125 178.179688 C 55.109375 181.089844 58.746094 181.609375 62.835938 179.707031 M 25.664062 170.492188 C 25.664062 170.203125 19.273438 155.183594 19.046875 154.933594 C 18.878906 154.75 13.179688 167.261719 12.144531 170.082031 C 11.941406 170.625 12.394531 170.664062 18.796875 170.664062 C 22.574219 170.664062 25.664062 170.589844 25.664062 170.492188 M 9.722656 171.71875 C 10.726562 169.1875 18.871094 151.003906 18.992188 151.007812 C 19.125 151.015625 26.46875 168.121094 27.738281 171.386719 C 27.96875 171.972656 27.578125 172 18.796875 172 C 13.742188 172 9.660156 171.871094 9.722656 171.71875 M 22.664062 179.796875 C 25.664062 178.429688 27.035156 176.84375 27.820312 173.820312 L 28.324219 171.894531 L 23.753906 161.113281 C 21.238281 155.183594 19.097656 150.332031 18.992188 150.332031 C 18.628906 150.332031 9 171.054688 9 171.84375 C 9 174.296875 11.757812 178.675781 14.054688 179.863281 C 16.605469 181.179688 19.675781 181.15625 22.664062 179.796875 M 40.664062 193.25 C 40.664062 192.285156 40.289062 184.375 39.832031 175.664062 C 39.375 166.957031 38.988281 159.382812 38.972656 158.832031 C 38.960938 158.28125 38.886719 157.984375 38.8125 158.164062 C 38.589844 158.726562 37.332031 194.394531 37.523438 194.707031 C 37.625 194.867188 38.371094 195 39.1875 195 L 40.664062 195 Z M 48.332031 197.164062 L 48.332031 196.332031 L 29 196.332031 L 29 198 L 48.332031 198 Z M 38.683594 200.476562 L 39.832031 199.285156 L 38.5 199.394531 C 37.265625 199.492188 37.160156 199.578125 37.0625 200.582031 C 36.929688 201.96875 37.265625 201.949219 38.683594 200.476562 M 39.371094 204.300781 C 41.261719 202.664062 41.621094 201.972656 41.058594 201.085938 C 40.871094 200.789062 40.253906 201.152344 38.898438 202.359375 C 37.410156 203.6875 37 204.261719 37 205.027344 C 37 205.5625 37.09375 206 37.203125 206 C 37.316406 206 38.292969 205.234375 39.371094 204.300781 M 41.433594 208.082031 C 41.507812 207.945312 41.480469 207.121094 41.367188 206.246094 L 41.164062 204.664062 L 39.164062 206.484375 L 37.164062 208.300781 L 39.230469 208.316406 C 40.363281 208.324219 41.355469 208.21875 41.433594 208.082031 M 41.914062 214.625 C 43.441406 213.886719 44.757812 212.222656 45.148438 210.535156 L 45.371094 209.574219 L 39.269531 209.816406 C 35.910156 209.949219 33.132812 210.09375 33.09375 210.132812 C 33.050781 210.171875 33.167969 210.75 33.355469 211.421875 C 34.261719 214.714844 38.476562 216.289062 41.914062 214.625 M 35.5 216.035156 C 33.128906 214.941406 31.664062 212.644531 31.664062 210.011719 L 31.664062 208.664062 L 33.082031 208.660156 C 33.863281 208.660156 34.679688 208.539062 34.898438 208.402344 C 35.15625 208.238281 35.382812 206.578125 35.535156 203.738281 L 35.765625 199.332031 L 27.664062 199.332031 L 27.664062 195 L 31.675781 195 C 34.589844 195 35.726562 194.886719 35.828125 194.582031 C 35.90625 194.355469 36.277344 185.316406 36.652344 174.5 C 37.027344 163.683594 37.382812 154.046875 37.445312 153.082031 L 37.554688 151.332031 L 29.40625 151.332031 C 23.003906 151.332031 21.296875 151.421875 21.421875 151.753906 C 21.511719 151.980469 23.421875 156.492188 25.664062 161.773438 C 29.597656 171.027344 29.738281 171.441406 29.519531 173.078125 C 29.199219 175.488281 28.59375 176.75 26.847656 178.617188 C 24.574219 181.046875 21.949219 182.136719 18.332031 182.152344 C 15.886719 182.164062 15.238281 182.039062 13.585938 181.226562 C 10.613281 179.765625 8.515625 176.78125 7.660156 172.777344 L 7.304688 171.113281 L 13.03125 159.058594 L 18.761719 147 L 37.664062 147 L 37.664062 145.027344 C 37.664062 142.625 37.878906 142 38.703125 142 C 39.175781 142 39.332031 142.238281 39.332031 142.953125 C 39.332031 143.476562 39.429688 144.601562 39.542969 145.449219 L 39.757812 146.988281 L 49.277344 147.078125 L 58.800781 147.164062 L 64.386719 159 C 70.742188 172.460938 70.730469 172.429688 68.976562 175.945312 C 67.800781 178.296875 66.0625 179.871094 63.144531 181.242188 C 61.492188 182.011719 60.722656 182.164062 58.496094 182.160156 C 56.261719 182.15625 55.523438 182.007812 53.9375 181.230469 C 50.839844 179.71875 48.960938 177.078125 48.371094 173.414062 L 48.050781 171.414062 L 51.992188 161.457031 L 55.9375 151.5 L 48.085938 151.410156 C 43.765625 151.359375 40.183594 151.371094 40.117188 151.4375 C 39.980469 151.574219 41.925781 190.679688 42.195312 193.25 L 42.382812 195 L 50 195 L 50 199.332031 L 42.664062 199.332031 L 42.664062 201.785156 C 42.664062 203.132812 42.761719 205.15625 42.882812 206.285156 L 43.09375 208.332031 L 46.664062 208.332031 L 46.660156 209.75 C 46.644531 212.460938 44.789062 215.085938 42.09375 216.214844 C 40.535156 216.871094 37.101562 216.773438 35.5 216.035156 M 56.074219 225.246094 C 57.308594 221.976562 59.21875 219.164062 61.9375 216.621094 C 65.789062 213.027344 70.136719 210.941406 74.875 210.417969 L 77.164062 210.164062 L 77.164062 132.5 L 39.25 132.414062 L 1.332031 132.328125 L 1.332031 227.664062 L 28.25 227.664062 L 55.164062 227.65625 Z M 85.785156 229.25 C 83.734375 225.878906 78.105469 217.105469 77.917969 216.988281 C 77.78125 216.902344 75.949219 219.65625 73.847656 223.105469 C 71.742188 226.558594 70.132812 229.332031 70.265625 229.273438 C 70.398438 229.214844 71.332031 228.757812 72.335938 228.261719 C 75.984375 226.453125 79.921875 226.507812 83.609375 228.414062 C 84.832031 229.046875 85.878906 229.585938 85.9375 229.617188 C 85.992188 229.644531 85.925781 229.480469 85.785156 229.25 M 71.691406 236.050781 C 71.160156 235.054688 71.257812 232.113281 71.859375 230.949219 L 72.386719 229.929688 L 71.355469 230.539062 C 70.789062 230.871094 69.71875 231.769531 68.972656 232.527344 L 67.617188 233.90625 L 69.6875 235.464844 C 71.824219 237.070312 72.316406 237.210938 71.691406 236.050781 M 84.921875 237.203125 C 85.605469 236.765625 86.691406 235.851562 87.332031 235.175781 L 88.5 233.945312 L 86.726562 232.304688 C 85.746094 231.402344 84.667969 230.511719 84.324219 230.328125 C 83.726562 230.007812 83.722656 230.046875 84.183594 231.152344 C 84.847656 232.742188 84.777344 234.890625 84.007812 236.582031 C 83.65625 237.363281 83.4375 238 83.523438 238 C 83.609375 238 84.238281 237.640625 84.921875 237.203125 M 76.023438 235.453125 C 74.160156 233.085938 76.59375 230.097656 79.484375 231.207031 C 80.339844 231.535156 81.070312 233.25 80.828125 234.355469 C 80.375 236.414062 77.328125 237.109375 76.023438 235.453125 M 80.347656 238.25 C 81.933594 237.449219 83.332031 235.316406 83.332031 233.699219 C 83.332031 232.324219 82.03125 230.074219 80.789062 229.308594 C 79.300781 228.386719 76.785156 228.347656 75.261719 229.21875 C 74.058594 229.910156 72.664062 232.296875 72.664062 233.664062 C 72.664062 234.136719 73.003906 235.195312 73.414062 236.011719 C 74.222656 237.613281 76.351562 239 78 239 C 78.472656 239 79.527344 238.660156 80.347656 238.25 M 95.804688 238.355469 C 96.113281 237.300781 96.332031 235.308594 96.332031 233.582031 C 96.332031 225.945312 91.523438 219.089844 84.277344 216.398438 C 82.394531 215.699219 79 215.078125 79 215.433594 C 79 215.625 82.390625 221.097656 87.824219 229.664062 C 89.511719 232.324219 91.761719 235.898438 92.824219 237.605469 C 93.886719 239.3125 94.871094 240.589844 95.015625 240.4375 C 95.15625 240.289062 95.511719 239.351562 95.804688 238.355469 M 69.289062 227.71875 C 73.347656 221.058594 76.664062 215.546875 76.664062 215.46875 C 76.664062 215.105469 74.777344 215.414062 72.40625 216.164062 C 62.398438 219.324219 56.980469 230.476562 60.703125 240.261719 C 61.105469 241.324219 60.195312 242.652344 69.289062 227.71875 M 92.925781 240.582031 C 92.65625 240.171875 91.800781 238.820312 91.023438 237.582031 L 89.605469 235.332031 L 87.886719 236.84375 C 84.390625 239.914062 79.855469 241.179688 75.933594 240.175781 C 73.457031 239.539062 70.585938 238.082031 68.371094 236.332031 C 67.40625 235.566406 66.574219 234.992188 66.527344 235.054688 C 66.140625 235.558594 63 240.972656 63 241.128906 C 63 241.242188 69.84375 241.332031 78.203125 241.332031 L 93.410156 241.332031 Z M 81.046875 251.855469 C 85.554688 251.050781 90.011719 248.390625 92.480469 245.023438 C 93.132812 244.136719 93.664062 243.316406 93.664062 243.203125 C 93.664062 243.09375 86.523438 243 77.792969 243 L 61.921875 243 L 62.84375 244.25 C 65.996094 248.511719 70.429688 251.257812 75.316406 251.980469 C 77.945312 252.367188 78.214844 252.359375 81.046875 251.855469 M 84.945312 254.578125 C 93.746094 251.464844 99.421875 243.910156 99.914062 234.652344 C 100.046875 232.113281 99.941406 230.914062 99.386719 228.714844 C 98.054688 223.453125 95.027344 218.824219 91.179688 216.164062 C 89.214844 214.8125 88.113281 213.796875 85.96875 211.359375 C 84.503906 209.695312 83.535156 209.496094 84.09375 210.972656 C 84.546875 212.183594 83.996094 212.996094 82.710938 213.011719 C 82.226562 213.015625 81.574219 213.21875 81.257812 213.457031 C 80.746094 213.84375 80.90625 213.945312 82.589844 214.320312 C 86.59375 215.210938 91.234375 218.199219 93.710938 221.472656 C 100.132812 229.96875 99.0625 241.425781 91.179688 248.558594 C 87.722656 251.6875 82.636719 253.65625 78 253.65625 C 69.683594 253.65625 61.785156 248 59.15625 240.164062 C 56.703125 232.855469 58.441406 225.234375 63.792969 219.839844 C 67.304688 216.304688 70.484375 214.703125 75.421875 213.988281 C 76.746094 213.796875 78.1875 213.488281 78.625 213.308594 C 79.402344 212.980469 79.40625 212.964844 78.789062 212.28125 C 78.242188 211.671875 77.90625 211.609375 76 211.769531 C 69.214844 212.339844 62.683594 216.457031 59.058594 222.445312 C 56.296875 227.015625 55.304688 233.175781 56.484375 238.472656 C 58.234375 246.351562 64.527344 252.886719 72.40625 255.011719 C 75.945312 255.96875 81.5625 255.773438 84.945312 254.578125 M 119.542969 261.695312 C 121.039062 261.015625 121.535156 260.496094 121.003906 260.167969 C 120.4375 259.816406 120.621094 259.101562 121.582031 257.957031 C 122.085938 257.355469 122.304688 256.984375 122.0625 257.128906 C 121.824219 257.277344 121.25 257.300781 120.789062 257.183594 C 120.070312 257.003906 119.980469 256.839844 120.160156 256.03125 C 120.324219 255.28125 120.234375 255.050781 119.734375 254.921875 C 119.320312 254.8125 118.96875 254.246094 118.722656 253.292969 C 118.144531 251.082031 117.859375 250.78125 117.210938 251.707031 C 116.910156 252.132812 116.664062 252.714844 116.664062 253 C 116.664062 253.832031 115.683594 255 114.980469 255 C 114.257812 255 114.148438 255.347656 114.695312 255.898438 C 115.304688 256.503906 114.460938 257.664062 113.40625 257.675781 L 112.5 257.6875 L 113.4375 258.511719 C 114.109375 259.101562 114.316406 259.527344 114.164062 260.003906 C 114.050781 260.367188 113.816406 260.664062 113.644531 260.664062 C 112.976562 260.664062 113.386719 261.238281 114.414062 261.75 C 115.871094 262.476562 117.871094 262.453125 119.542969 261.695312 M 122.570312 290.125 C 124.90625 289.953125 130.183594 290.523438 132.582031 291.199219 L 133.332031 291.410156 L 133.332031 264.941406 L 132.070312 265.15625 C 130.40625 265.433594 126.621094 264.8125 124.71875 263.945312 C 122.90625 263.121094 120.78125 263.253906 118.6875 264.320312 L 117.332031 265.011719 L 117.332031 271.285156 C 117.332031 274.734375 117.234375 280.734375 117.113281 284.617188 L 116.894531 291.675781 L 118.433594 290.996094 C 119.324219 290.601562 121.0625 290.234375 122.570312 290.125 M 101.832031 291.121094 C 105.363281 290.269531 111.300781 290.34375 113.644531 291.269531 C 114.644531 291.660156 115.484375 291.949219 115.515625 291.910156 C 115.546875 291.867188 115.667969 285.871094 115.785156 278.578125 C 115.988281 265.640625 115.980469 265.3125 115.332031 264.664062 C 114.964844 264.296875 114.46875 264 114.226562 264 C 113.203125 264 109.9375 265.183594 106.8125 266.691406 C 103.679688 268.203125 100.308594 269.332031 98.929688 269.332031 C 98.367188 269.332031 98.332031 270 98.332031 280.6875 C 98.332031 291.351562 98.367188 292.035156 98.914062 291.863281 C 99.238281 291.765625 100.550781 291.429688 101.832031 291.121094 M 129.65625 292.078125 C 126.578125 291.472656 121.097656 291.449219 119.730469 292.03125 C 118.734375 292.453125 119.253906 292.5 125.222656 292.5 C 131.453125 292.5 131.691406 292.476562 129.65625 292.078125 M 136.933594 292.933594 C 137.230469 292.636719 137.332031 289.324219 137.332031 280.097656 C 137.332031 266.445312 137.472656 267.324219 135.414062 267.875 L 134.664062 268.078125 L 134.664062 280.484375 C 134.664062 287.304688 134.765625 292.988281 134.890625 293.109375 C 135.25 293.472656 136.503906 293.363281 136.933594 292.933594 M 103.722656 293.191406 C 105.40625 292.902344 108.070312 292.65625 109.640625 292.644531 C 111.933594 292.628906 112.335938 292.554688 111.664062 292.28125 C 109.683594 291.460938 101.390625 292.386719 97.582031 293.847656 C 97.035156 294.058594 97 293.421875 97 283.34375 C 97 273.308594 96.960938 272.625 96.414062 272.730469 C 95.878906 272.832031 95.828125 273.671875 95.746094 283.875 L 95.65625 294.910156 L 98.160156 294.3125 C 99.535156 293.988281 102.039062 293.480469 103.722656 293.191406 M 94.332031 294.480469 C 94.332031 293.074219 94.066406 293.046875 92.84375 294.324219 C 91.878906 295.328125 91.882812 295.332031 93.332031 295.761719 C 94.117188 295.992188 94.332031 295.714844 94.332031 294.480469 M 89.664062 301.664062 C 89.664062 301.300781 89.613281 301 89.550781 301 C 89.488281 301 89.164062 301.300781 88.832031 301.664062 C 88.246094 302.3125 88.25 302.332031 88.949219 302.332031 C 89.445312 302.332031 89.664062 302.125 89.664062 301.664062 M 96.546875 298.171875 C 96.382812 297.746094 91.453125 296.769531 91.125 297.097656 C 91.015625 297.203125 91.035156 298.1875 91.160156 299.28125 L 91.390625 301.273438 L 93.945312 301.902344 L 96.5 302.535156 L 96.601562 300.550781 C 96.65625 299.460938 96.632812 298.390625 96.546875 298.171875 M 132.089844 298.902344 C 135.882812 294.167969 136.101562 294.632812 129.742188 293.976562 C 125.003906 293.488281 119.320312 293.710938 117.539062 294.457031 C 116.375 294.949219 116.085938 294.953125 114.5625 294.5 C 112.640625 293.929688 109.234375 293.863281 105.832031 294.335938 C 102.804688 294.757812 97 296.046875 97 296.300781 C 97 296.492188 127.324219 302.929688 128.332031 302.953125 C 128.609375 302.960938 130.296875 301.136719 132.089844 298.902344 Z M 136.765625 301.332031 L 141.28125 296.164062 L 140.308594 295.746094 C 139.492188 295.398438 139.332031 295.136719 139.332031 294.144531 C 139.332031 293.441406 139.199219 293.042969 139 293.164062 C 138.816406 293.28125 138.664062 293.824219 138.664062 294.375 C 138.664062 295.199219 138.554688 295.34375 138.054688 295.183594 C 137.570312 295.03125 136.632812 295.964844 133.71875 299.496094 L 130 304 L 130 309.121094 L 131.125 307.808594 C 131.746094 307.089844 134.28125 304.175781 136.765625 301.332031 M 128.332031 307.414062 L 128.332031 304.5 L 114.894531 301.714844 C 107.503906 300.183594 101.054688 298.855469 100.5625 298.761719 L 99.664062 298.589844 L 99.664062 300.960938 C 99.664062 302.265625 99.703125 303.339844 99.75 303.347656 C 99.796875 303.355469 106.058594 304.921875 113.664062 306.828125 C 121.273438 308.734375 127.6875 310.300781 127.914062 310.3125 C 128.21875 310.328125 128.332031 309.539062 128.332031 307.414062 M 95.332031 307.859375 L 95.332031 305.390625 L 91.621094 304.519531 C 89.578125 304.039062 87.828125 303.726562 87.730469 303.824219 C 87.632812 303.921875 87.539062 305 87.527344 306.222656 L 87.5 308.441406 L 90.664062 309.351562 C 95.511719 310.742188 95.332031 310.800781 95.332031 307.859375 M 101 309.339844 C 101 306.410156 101.226562 306.722656 98.664062 306.160156 C 98.390625 306.101562 97.828125 305.953125 97.414062 305.835938 C 96.683594 305.625 96.664062 305.679688 96.664062 308.296875 L 96.664062 310.972656 L 98.082031 311.339844 C 98.863281 311.539062 99.648438 311.757812 99.832031 311.824219 C 100.886719 312.210938 101 311.964844 101 309.339844 M 138.15625 304.03125 C 142.644531 298.632812 144.246094 296.484375 143.933594 296.289062 C 143.667969 296.125 143.285156 296.242188 142.949219 296.59375 C 140.996094 298.632812 130 311.425781 130 311.660156 C 130 312.117188 131.125 312.261719 131.554688 311.859375 C 131.765625 311.660156 134.738281 308.136719 138.15625 304.03125 M 118.234375 310.789062 C 118.164062 310.71875 114.820312 309.90625 110.804688 308.980469 C 106.785156 308.058594 103.238281 307.222656 102.914062 307.128906 C 102.394531 306.972656 102.332031 307.246094 102.332031 309.75 L 102.332031 312.542969 L 110.25 314.691406 L 118.164062 316.839844 L 118.261719 313.878906 C 118.316406 312.246094 118.304688 310.859375 118.234375 310.789062 M 139.953125 311.46875 L 146.734375 303.941406 L 145.867188 303.035156 C 145.261719 302.402344 145 301.769531 145 300.925781 C 145 298.261719 144.800781 298.417969 138.445312 306.082031 C 132.9375 312.722656 132.3125 313.601562 132.480469 314.457031 C 132.582031 314.984375 132.664062 316.222656 132.664062 317.207031 C 132.664062 318.191406 132.78125 319 132.917969 319 C 133.058594 319 136.222656 315.609375 139.953125 311.46875 M 131.203125 317.097656 C 131.078125 315.320312 130.914062 313.804688 130.839844 313.730469 C 130.574219 313.464844 120.003906 311.105469 119.835938 311.273438 C 119.742188 311.367188 119.664062 312.75 119.664062 314.347656 L 119.664062 317.253906 L 124.75 318.648438 C 127.546875 319.414062 129.984375 320.09375 130.164062 320.160156 C 131.371094 320.59375 131.4375 320.402344 131.203125 317.097656 M 131.15625 322.160156 C 130.796875 321.933594 120.394531 318.996094 108.046875 315.625 L 85.597656 309.5 L 85.808594 307.332031 C 86.308594 302.1875 86.320312 302.148438 88.039062 300.21875 C 89.4375 298.648438 89.664062 298.195312 89.664062 296.996094 C 89.664062 295.722656 89.878906 295.367188 91.996094 293.101562 L 94.324219 290.609375 L 94.410156 281.066406 L 94.5 271.523438 L 95.75 271.230469 C 96.988281 270.9375 97 270.914062 97 269.277344 C 97 267.796875 97.066406 267.644531 97.640625 267.824219 C 98.757812 268.179688 102.707031 267.027344 106.28125 265.308594 C 108.183594 264.394531 110.398438 263.46875 111.203125 263.253906 C 112.007812 263.039062 112.664062 262.769531 112.664062 262.660156 C 112.664062 262.546875 112.21875 262.027344 111.664062 261.5 C 110.53125 260.410156 110.414062 259.839844 111.234375 259.382812 C 111.65625 259.144531 111.710938 258.949219 111.445312 258.613281 C 110.828125 257.832031 110.675781 256.5 111.046875 255.15625 L 111.40625 253.851562 L 112.664062 255.40625 L 112.664062 254.335938 C 112.664062 253.21875 113.554688 251 114 251 C 114.140625 251 114.367188 251.5625 114.503906 252.25 C 114.742188 253.476562 114.75 253.484375 115.097656 252.664062 C 115.683594 251.269531 117.382812 248.664062 117.707031 248.664062 C 118.148438 248.664062 120 251.683594 120 252.398438 C 120 253.183594 120.289062 253.15625 121.21875 252.285156 L 121.976562 251.570312 L 122.394531 253.128906 C 122.660156 254.121094 122.960938 254.625 123.226562 254.523438 C 123.929688 254.253906 124.164062 256.574219 123.5625 257.839844 C 123.109375 258.789062 123.105469 258.96875 123.519531 259.128906 C 124.214844 259.394531 124.109375 260.4375 123.332031 260.921875 C 122.472656 261.460938 122.480469 262 123.351562 262 C 123.726562 262 124.742188 262.324219 125.601562 262.71875 C 126.613281 263.183594 128.089844 263.496094 129.773438 263.597656 C 132.359375 263.753906 132.386719 263.746094 133.523438 262.644531 L 134.664062 261.535156 L 134.664062 266.632812 L 136.082031 266.21875 C 138.847656 265.40625 138.664062 264.644531 138.664062 277.167969 C 138.664062 288.082031 138.679688 288.292969 139.347656 288.503906 C 139.726562 288.621094 140.25 288.539062 140.515625 288.320312 C 140.902344 287.996094 141 288.019531 141 288.421875 C 141 288.699219 141.246094 289.023438 141.546875 289.136719 C 142.050781 289.332031 142.050781 289.390625 141.546875 289.949219 C 141.246094 290.28125 141 291.089844 141 291.746094 C 141 292.871094 141.128906 293.015625 143.167969 294.15625 C 144.363281 294.824219 145.488281 295.277344 145.667969 295.164062 C 145.851562 295.050781 146 295.195312 146 295.480469 C 146 295.765625 146.167969 296 146.375 296 C 146.632812 296 146.644531 296.128906 146.410156 296.414062 C 146.210938 296.660156 146.140625 297.824219 146.246094 299.234375 C 146.414062 301.574219 146.453125 301.660156 147.710938 302.53125 C 148.417969 303.023438 149 303.480469 149 303.550781 C 149 303.621094 145.457031 307.613281 141.125 312.421875 C 136.792969 317.230469 133.179688 321.414062 133.09375 321.71875 C 132.886719 322.453125 131.964844 322.664062 131.15625 322.160156 M 82.132812 331.527344 C 85.148438 330.507812 90.019531 330.351562 119.023438 330.339844 C 151.148438 330.332031 149.800781 330.425781 152.097656 328.070312 C 154.488281 325.621094 154.332031 329.195312 154.332031 276.125 L 154.332031 228.332031 L 101.164062 228.332031 L 101.164062 233.582031 C 101.164062 238.441406 101.097656 239.015625 100.273438 241.277344 C 98.949219 244.910156 97.46875 247.195312 94.5 250.195312 C 90.535156 254.203125 86.109375 256.414062 81 256.941406 L 78.832031 257.164062 L 78.75 295.273438 L 78.664062 333.378906 L 79.582031 332.730469 C 80.085938 332.371094 81.234375 331.828125 82.136719 331.527344 Z M 18.894531 250.570312 C 19.695312 251.09375 19.703125 251.089844 19.472656 250.171875 C 19.285156 249.421875 19.394531 249.121094 20.035156 248.628906 L 20.832031 248.015625 L 19.777344 248.007812 C 18.929688 248 18.660156 247.820312 18.402344 247.082031 L 18.082031 246.164062 L 17.839844 247.082031 C 17.640625 247.832031 17.402344 248.003906 16.546875 248.011719 L 15.5 248.023438 L 16.285156 248.675781 C 16.890625 249.179688 17.023438 249.53125 16.855469 250.195312 C 16.648438 251.023438 16.667969 251.035156 17.363281 250.550781 C 18.015625 250.09375 18.171875 250.097656 18.894531 250.570312 M 29.035156 285.554688 C 28.890625 285.160156 26.328125 277.632812 23.335938 268.832031 C 20.34375 260.03125 17.796875 252.71875 17.679688 252.578125 C 17.558594 252.441406 16.65625 252.929688 15.671875 253.664062 C 14.683594 254.398438 13.84375 255 13.800781 255 C 13.753906 255 14.074219 253.839844 14.515625 252.421875 C 14.949219 251.003906 15.203125 249.753906 15.070312 249.644531 C 14.941406 249.539062 14.011719 248.859375 13.003906 248.140625 L 11.175781 246.832031 L 13.8125 246.664062 L 16.445312 246.5 L 17.277344 244 C 17.742188 242.605469 18.191406 241.722656 18.289062 242 C 18.386719 242.273438 18.773438 243.398438 19.152344 244.5 L 19.832031 246.5 L 22.453125 246.664062 L 25.078125 246.832031 L 21.007812 249.777344 L 22.085938 250.5 C 22.679688 250.898438 28.566406 254.648438 35.164062 258.828125 C 41.765625 263.011719 47.34375 266.597656 47.5625 266.800781 C 47.867188 267.082031 47.863281 267.292969 47.546875 267.722656 C 47.171875 268.226562 46.785156 268.058594 43.648438 266.039062 C 39.328125 263.257812 39.332031 263.261719 39.332031 263.441406 C 39.332031 263.523438 40.605469 264.511719 42.160156 265.640625 C 44.683594 267.476562 44.945312 267.761719 44.59375 268.324219 C 44.144531 269.046875 44.566406 269.277344 39.164062 265.332031 C 32.921875 260.769531 32.679688 260.734375 38 265.175781 C 39.925781 266.78125 41.613281 268.195312 41.75 268.316406 C 41.890625 268.4375 41.792969 268.820312 41.539062 269.167969 C 41.101562 269.769531 40.972656 269.710938 38.953125 268.003906 C 35.257812 264.871094 35.113281 264.796875 37.472656 267.238281 C 39.480469 269.320312 39.722656 269.699219 39.332031 270.164062 C 38.9375 270.644531 38.671875 270.492188 36.867188 268.765625 C 34.988281 266.964844 35.238281 267.460938 37.425781 269.863281 C 38.289062 270.816406 38.320312 270.929688 37.800781 271.359375 C 37.296875 271.777344 36.988281 271.5625 34.898438 269.328125 L 32.5625 266.832031 L 34.582031 269.523438 C 36.453125 272.015625 36.558594 272.238281 35.984375 272.597656 C 35.441406 272.9375 35.171875 272.734375 33.800781 270.992188 C 32.9375 269.894531 32.171875 269 32.09375 269 C 32.011719 269 32.601562 269.9375 33.402344 271.082031 C 35.472656 274.046875 35.425781 273.925781 34.683594 274.324219 C 34.085938 274.644531 33.847656 274.429688 32.457031 272.339844 C 30.878906 269.964844 30.0625 269.097656 31.273438 271.082031 C 33.753906 275.144531 33.964844 275.613281 33.492188 276.003906 C 32.835938 276.550781 32.542969 276.273438 31.175781 273.828125 C 30.511719 272.640625 29.886719 271.664062 29.785156 271.664062 C 29.6875 271.664062 30.308594 272.96875 31.171875 274.5625 C 32.644531 277.285156 32.699219 277.484375 32.136719 277.898438 C 31.585938 278.296875 31.378906 278.050781 29.773438 275.085938 C 28.804688 273.296875 28.007812 271.914062 28.007812 272.011719 C 28.003906 272.109375 28.75 273.964844 29.664062 276.132812 C 30.582031 278.300781 31.332031 280.128906 31.332031 280.191406 C 31.332031 280.257812 31.050781 280.460938 30.703125 280.644531 C 30.132812 280.949219 29.890625 280.546875 28.132812 276.339844 C 27.066406 273.785156 26.148438 271.742188 26.09375 271.796875 C 26.035156 271.851562 27.042969 274.992188 28.328125 278.773438 C 29.613281 282.554688 30.664062 285.710938 30.664062 285.785156 C 30.664062 285.859375 30.359375 286.003906 29.980469 286.101562 C 29.484375 286.230469 29.226562 286.078125 29.035156 285.554688 M 51.332031 273.246094 C 51.332031 273.015625 51.03125 272.640625 50.664062 272.410156 C 50.089844 272.050781 50 272.078125 50 272.609375 C 50 272.945312 50.101562 273.320312 50.222656 273.445312 C 50.597656 273.820312 51.332031 273.691406 51.332031 273.246094 M 44.664062 274 C 44.664062 273.246094 46.035156 272.332031 47.164062 272.332031 C 47.808594 272.332031 48.332031 272.183594 48.332031 272 C 48.332031 271.566406 46.835938 271.578125 45.25 272.015625 C 44.164062 272.316406 44 272.496094 44 273.347656 C 44 273.890625 44.148438 274.332031 44.332031 274.332031 C 44.515625 274.332031 44.664062 274.183594 44.664062 274 M 39.679688 276.308594 C 39.945312 276.136719 40.691406 276.03125 41.332031 276.078125 C 42.464844 276.164062 42.496094 276.203125 42.402344 277.414062 C 42.292969 278.804688 42.679688 279.027344 43.375 277.976562 C 43.628906 277.597656 44.648438 277.011719 45.644531 276.671875 C 47.34375 276.097656 47.453125 275.992188 47.476562 274.945312 C 47.507812 273.550781 46.699219 273.4375 46.070312 274.75 C 45.707031 275.507812 45.414062 275.664062 44.382812 275.664062 C 42.941406 275.664062 42.332031 275.195312 42.332031 274.078125 L 42.332031 273.289062 L 40.964844 274.058594 C 39.449219 274.910156 37.332031 277.085938 37.332031 277.789062 C 37.332031 278.039062 37.671875 278.671875 38.082031 279.199219 L 38.832031 280.15625 L 39.011719 278.390625 C 39.113281 277.378906 39.394531 276.492188 39.679688 276.308594 M 24.121094 289.308594 C 25.175781 288.476562 25.265625 287.261719 24.332031 286.332031 C 23.023438 285.023438 20.664062 285.96875 20.664062 287.808594 C 20.664062 288.621094 22.03125 290 22.832031 290 C 23.058594 290 23.640625 289.6875 24.121094 289.308594 M 63.097656 289.664062 C 63.265625 289.023438 63.339844 287.222656 63.265625 285.664062 C 63.148438 283.3125 62.9375 282.441406 62.015625 280.515625 C 60.953125 278.308594 58.289062 275 57.570312 275 C 57.382812 275 57.476562 275.273438 57.78125 275.609375 C 58.550781 276.460938 58.46875 277.472656 57.539062 278.550781 C 56.878906 279.320312 56.804688 279.605469 57.105469 280.261719 C 57.367188 280.839844 57.355469 281.21875 57.066406 281.683594 C 56.636719 282.371094 56.617188 282.363281 59.300781 282.8125 C 59.925781 282.917969 60.636719 283.171875 60.886719 283.375 C 61.484375 283.871094 61.453125 285.152344 60.832031 285.664062 C 60.171875 286.214844 60.203125 286.5625 61.003906 287.582031 C 61.609375 288.347656 61.625 288.492188 61.171875 288.992188 C 60.894531 289.300781 60.664062 289.886719 60.664062 290.296875 C 60.664062 290.933594 60.820312 291.027344 61.730469 290.9375 C 62.632812 290.847656 62.839844 290.65625 63.097656 289.664062 M 25.476562 292.375 C 25.175781 291.617188 24.792969 291 24.628906 291 C 24.191406 291 24.253906 291.230469 25.078125 292.660156 C 26.015625 294.289062 26.191406 294.164062 25.476562 292.375 M 21.324219 291.25 C 21.328125 291.113281 21.199219 291 21.03125 291 C 20.761719 291 20.59375 291.347656 19.832031 293.5 C 19.703125 293.867188 19.984375 293.566406 20.453125 292.832031 C 20.925781 292.097656 21.316406 291.386719 21.324219 291.25 M 46.792969 294.605469 C 47.488281 292.316406 47.894531 291.535156 48.722656 290.890625 C 50.046875 289.851562 49.859375 289.371094 47.613281 288.054688 C 46.632812 287.480469 45.121094 286.382812 44.25 285.617188 C 43.378906 284.851562 42.597656 284.292969 42.511719 284.378906 C 42.425781 284.464844 42.253906 285.378906 42.132812 286.414062 C 41.921875 288.203125 41.964844 288.347656 42.929688 289.316406 C 43.488281 289.875 44.273438 290.332031 44.675781 290.332031 C 45.394531 290.332031 45.398438 290.371094 45.171875 294.582031 C 44.96875 298.355469 44.996094 298.757812 45.425781 298.164062 C 45.695312 297.800781 46.308594 296.195312 46.792969 294.605469 M 43.472656 298.164062 C 44.09375 291.210938 44.101562 291.742188 43.378906 291.511719 C 42.34375 291.183594 40.722656 289.140625 40.484375 287.863281 C 40.363281 287.226562 40.441406 286.175781 40.65625 285.527344 C 41.191406 283.90625 40.914062 283.285156 39.078125 282.003906 C 38.210938 281.402344 37.109375 280.453125 36.628906 279.894531 L 35.757812 278.886719 L 35.011719 280.859375 C 32.375 287.835938 34.6875 295.109375 40.789062 299.054688 C 41.878906 299.757812 42.886719 300.332031 43.023438 300.332031 C 43.164062 300.332031 43.367188 299.359375 43.472656 298.164062 M 53.460938 300.652344 C 56.273438 299.785156 59.367188 297.453125 61.101562 294.902344 C 61.824219 293.839844 62.308594 292.867188 62.183594 292.742188 C 62.058594 292.613281 61.355469 292.527344 60.617188 292.546875 L 59.277344 292.582031 L 59.355469 290.375 C 59.398438 289.160156 59.261719 287.742188 59.050781 287.226562 C 58.546875 286 58.5625 285.816406 59.222656 285.160156 C 59.6875 284.691406 59.703125 284.558594 59.304688 284.308594 C 59.046875 284.144531 58.335938 284.007812 57.726562 284.003906 C 55.6875 283.996094 55.394531 283.617188 55.410156 281.015625 C 55.421875 279.179688 55.558594 278.566406 56.046875 278.125 C 56.855469 277.394531 56.828125 276.859375 55.929688 275.640625 C 55.335938 274.835938 55.261719 274.523438 55.566406 274.035156 C 55.890625 273.515625 55.78125 273.351562 54.792969 272.882812 C 54.160156 272.578125 53.597656 272.332031 53.539062 272.332031 C 53.339844 272.332031 52.355469 274.839844 52.261719 275.597656 L 52.164062 276.363281 L 50.535156 275.324219 L 48.902344 274.285156 L 49.109375 275.789062 L 49.3125 277.289062 L 47.429688 277.679688 C 46.136719 277.949219 45.238281 278.375 44.578125 279.035156 C 43.84375 279.769531 43.304688 280 42.308594 280 C 41.035156 280 41 279.96875 41 278.832031 C 41 278.191406 40.851562 277.664062 40.664062 277.664062 C 40.140625 277.664062 40.277344 279.070312 40.914062 280.257812 C 41.613281 281.554688 45.820312 285.253906 48.203125 286.664062 C 50.71875 288.15625 51.167969 288.804688 51.039062 290.742188 C 51.015625 291.058594 50.554688 291.546875 50.015625 291.824219 C 49.164062 292.265625 48.886719 292.792969 48.019531 295.597656 C 47.304688 297.925781 46.722656 299.15625 45.996094 299.898438 C 44.757812 301.167969 44.945312 301.273438 48.546875 301.304688 C 50.402344 301.324219 51.960938 301.117188 53.460938 300.652344 M 28.664062 301.863281 C 28.664062 301.324219 22.851562 292.015625 22.652344 292.230469 C 22.351562 292.542969 17 301.675781 17 301.871094 C 17 301.941406 19.625 302 22.832031 302 C 26.039062 302 28.664062 301.9375 28.664062 301.863281 M 62 313.054688 L 62 303.773438 L 50.945312 303.554688 C 44.867188 303.433594 34.289062 303.332031 27.445312 303.332031 L 15 303.332031 L 15 308.664062 L 57.332031 308.664062 L 57.332031 322.332031 L 62 322.332031 Z M 55.664062 316.832031 L 55.664062 310 L 13.332031 310 L 13.332031 302.042969 L 14.222656 301.9375 C 15.046875 301.839844 15.269531 301.417969 17.257812 296.164062 C 19.101562 291.292969 19.394531 290.214844 19.359375 288.472656 C 19.308594 286.097656 19.992188 284.941406 21.808594 284.339844 C 22.707031 284.042969 23.1875 284.070312 24.113281 284.453125 C 25.773438 285.148438 26.429688 286.300781 26.273438 288.242188 C 26.167969 289.566406 26.519531 290.839844 28.367188 295.832031 L 30.589844 301.832031 L 42.832031 301.996094 L 41 300.984375 C 31.695312 295.847656 29.574219 283.324219 36.6875 275.539062 C 45.996094 265.355469 63.070312 270.5625 64.980469 284.164062 C 65.9375 291.007812 62.289062 298.136719 56.296875 301.121094 L 54.535156 302 L 63.332031 302 L 63.332031 323.664062 L 55.664062 323.664062 Z M 77.25 295.414062 L 77.164062 257.164062 L 74.921875 256.945312 C 67.503906 256.210938 60.410156 251.160156 56.980469 244.164062 C 55.089844 240.304688 54.617188 238.179688 54.605469 233.414062 L 54.59375 229.332031 L 1.332031 229.332031 L 1.332031 276.4375 C 1.332031 316.910156 1.402344 323.777344 1.824219 325.195312 C 2.355469 326.988281 4.117188 328.980469 5.832031 329.730469 C 6.625 330.074219 13.308594 330.203125 37.832031 330.335938 C 72.019531 330.523438 71.386719 330.484375 75.164062 332.644531 C 76.082031 333.164062 76.945312 333.609375 77.085938 333.628906 C 77.222656 333.648438 77.296875 316.453125 77.25 295.414062 M 77 336.742188 C 77 335.265625 74.992188 333.796875 71.5 332.714844 C 70.066406 332.269531 65.476562 332.171875 38.5 332.007812 C 12.796875 331.851562 6.957031 331.734375 6 331.351562 C 3.160156 330.21875 1.300781 328.34375 0.390625 325.699219 C 0.0976562 324.84375 0 300.824219 0 227.785156 L 0 131.003906 L 77.164062 130.832031 L 77.253906 106.25 C 77.320312 86.683594 77.253906 81.667969 76.917969 81.683594 C 76.6875 81.691406 75.691406 82.261719 74.699219 82.953125 L 72.902344 84.207031 L 69.945312 93.851562 C 68.324219 99.160156 66.839844 104.0625 66.648438 104.75 C 66.402344 105.652344 66.125 106 65.652344 106 C 65.277344 106 65 105.773438 65 105.46875 C 65 105.175781 66.273438 100.765625 67.832031 95.664062 C 69.390625 90.566406 70.664062 86.238281 70.664062 86.042969 C 70.664062 85.566406 60.105469 92.457031 58.800781 93.78125 C 58.230469 94.359375 52.855469 101.621094 46.851562 109.914062 C 40.851562 118.210938 35.820312 125.070312 35.675781 125.160156 C 35.527344 125.253906 35.222656 125.101562 34.996094 124.832031 C 34.496094 124.226562 33.109375 126.273438 46.59375 107.71875 C 52.632812 99.40625 57.726562 92.132812 57.914062 91.554688 C 58.101562 90.972656 59.09375 88.132812 60.117188 85.234375 C 61.144531 82.339844 61.796875 80.082031 61.574219 80.21875 C 61.351562 80.355469 57.351562 82.921875 52.691406 85.921875 C 45.089844 90.8125 44.179688 91.3125 43.878906 90.769531 C 43.691406 90.4375 43.601562 90.089844 43.679688 90 C 43.753906 89.90625 47.871094 87.230469 52.824219 84.046875 C 57.777344 80.867188 62.078125 78.046875 62.378906 77.78125 C 62.914062 77.308594 64.835938 72.390625 64.585938 72.140625 C 64.515625 72.070312 52.128906 76.121094 37.058594 81.144531 C 11.035156 89.824219 9.644531 90.246094 9.3125 89.628906 C 9.015625 89.070312 9.117188 88.914062 10.066406 88.523438 C 10.671875 88.273438 23.058594 84.136719 37.59375 79.332031 C 59.03125 72.242188 63.953125 70.511719 63.652344 70.148438 C 63.449219 69.902344 62.566406 69.246094 61.695312 68.683594 L 60.109375 67.664062 L 50.601562 67.664062 C 39.066406 67.664062 37 67.503906 37 66.589844 C 37 65.960938 37.253906 65.949219 47.75 66.179688 C 54.511719 66.324219 58.375 66.292969 58.164062 66.097656 C 57.984375 65.921875 55.339844 63.953125 52.289062 61.726562 L 46.742188 57.667969 L 29.46875 52.820312 C 19.964844 50.152344 12.144531 47.921875 12.089844 47.863281 C 11.886719 47.664062 12.410156 46.664062 12.71875 46.664062 C 12.890625 46.664062 20.558594 48.777344 29.765625 51.355469 L 46.5 56.046875 L 52.921875 56.011719 C 56.453125 55.992188 59.621094 55.867188 59.96875 55.738281 C 60.457031 55.550781 58.816406 54.289062 52.3125 49.863281 C 45.027344 44.902344 44.074219 44.148438 44.363281 43.605469 C 44.78125 42.828125 44.058594 42.402344 54.65625 49.640625 L 63.484375 55.664062 L 65.929688 55.664062 C 67.792969 55.664062 68.3125 55.566406 68.128906 55.25 C 67.992188 55.019531 61.144531 45.632812 52.914062 34.390625 C 39.253906 15.730469 37.996094 13.90625 38.539062 13.511719 C 39.253906 12.988281 37.335938 10.519531 54.984375 34.664062 C 62.554688 45.023438 68.9375 53.699219 69.167969 53.945312 C 69.507812 54.3125 69.742188 53.929688 70.433594 51.871094 L 71.28125 49.351562 L 68.265625 39.425781 C 64.628906 27.457031 64.796875 28.148438 65.515625 27.871094 C 65.835938 27.75 66.160156 27.71875 66.242188 27.796875 C 66.324219 27.878906 67.644531 32.101562 69.179688 37.179688 C 70.714844 42.257812 72.035156 46.480469 72.121094 46.5625 C 72.203125 46.648438 73.398438 43.292969 74.777344 39.109375 L 77.28125 31.5 L 77.089844 15.75 C 76.902344 0.183594 76.90625 0 77.5625 0 C 78.203125 0 78.234375 0.308594 78.445312 8.25 C 78.566406 12.785156 78.664062 20.1875 78.664062 24.695312 L 78.664062 32.894531 L 81.335938 39.671875 C 82.804688 43.398438 84.058594 46.503906 84.125 46.570312 C 84.234375 46.679688 87.566406 37.226562 89.800781 30.453125 C 90.570312 28.117188 90.789062 27.761719 91.347656 27.90625 C 91.707031 28 92 28.175781 92 28.292969 C 92 28.414062 90.445312 33.167969 88.546875 38.859375 L 85.09375 49.210938 L 85.964844 51.40625 C 86.441406 52.613281 86.984375 53.632812 87.164062 53.664062 C 87.351562 53.703125 94.207031 44.527344 102.40625 33.28125 C 110.609375 22.035156 117.398438 12.863281 117.496094 12.902344 C 118.753906 13.390625 118.566406 13.679688 103.652344 34.136719 C 95.390625 45.46875 88.710938 54.820312 88.8125 54.925781 C 88.914062 55.027344 90.160156 55.171875 91.582031 55.246094 L 94.164062 55.386719 L 102.664062 49.203125 C 107.34375 45.800781 111.316406 43.0625 111.5 43.121094 C 112.757812 43.503906 111.597656 44.589844 104.335938 49.851562 C 100.097656 52.921875 96.753906 55.542969 96.898438 55.679688 C 97.046875 55.816406 99.421875 56.117188 102.179688 56.351562 L 107.191406 56.777344 L 124.476562 51.359375 C 138.113281 47.085938 141.820312 46.039062 142.039062 46.390625 C 142.195312 46.632812 142.28125 46.960938 142.234375 47.117188 C 142.183594 47.273438 134.5 49.800781 125.15625 52.730469 L 108.171875 58.058594 L 103.40625 61.914062 C 100.785156 64.03125 98.550781 65.917969 98.4375 66.101562 C 98.300781 66.320312 101.738281 66.351562 108.617188 66.1875 C 118.753906 65.949219 119 65.960938 119 66.59375 C 119 67.5 116.929688 67.664062 105.648438 67.664062 L 96.394531 67.664062 L 94.671875 69.027344 C 93.722656 69.777344 92.996094 70.429688 93.058594 70.476562 C 93.117188 70.523438 105.136719 74.371094 119.765625 79.019531 C 144.039062 86.742188 146.351562 87.539062 146.265625 88.15625 C 146.199219 88.589844 145.957031 88.796875 145.582031 88.734375 C 145.261719 88.679688 133.210938 84.882812 118.804688 80.292969 C 104.394531 75.703125 92.550781 72.003906 92.480469 72.074219 C 92.410156 72.144531 92.761719 73.464844 93.257812 75.003906 L 94.164062 77.800781 L 103.40625 83.316406 C 108.488281 86.351562 112.648438 89.023438 112.65625 89.261719 C 112.683594 90.421875 111.125 89.710938 103.328125 85.027344 C 98.722656 82.261719 94.90625 80 94.847656 80 C 94.789062 80 95.699219 83.066406 96.871094 86.8125 L 99 93.628906 L 110.039062 109.519531 C 118.5 121.691406 120.976562 125.476562 120.625 125.699219 C 120.371094 125.859375 120.019531 125.941406 119.84375 125.886719 C 119.664062 125.828125 114.457031 118.503906 108.269531 109.605469 L 97.023438 93.425781 L 91.3125 89.523438 C 88.171875 87.378906 85.523438 85.695312 85.433594 85.789062 C 85.339844 85.882812 86.703125 90.273438 88.460938 95.546875 C 91.628906 105.039062 91.75 105.644531 90.5 105.660156 C 90.316406 105.660156 88.558594 100.75 86.59375 94.746094 C 83.058594 83.953125 83.003906 83.824219 81.765625 83 C 81.078125 82.539062 80.097656 81.890625 79.589844 81.550781 L 78.664062 80.933594 L 78.664062 131 L 156.007812 131 L 155.917969 227.75 C 155.847656 305.429688 155.742188 324.746094 155.402344 325.742188 C 154.730469 327.6875 152.980469 329.71875 151.171875 330.648438 L 149.519531 331.5 L 118.175781 331.699219 C 84.535156 331.914062 84.425781 331.917969 81.042969 333.644531 C 79.730469 334.3125 78.664062 335.734375 78.664062 336.816406 C 78.664062 337.144531 78.363281 337.332031 77.832031 337.332031 C 77.257812 337.332031 77 337.148438 77 336.742188 "/>
</g>
<path fill-rule="nonzero" fill="rgb(92.498779%, 10.598755%, 13.699341%)" fill-opacity="1" d="M 457.007812 252.800781 C 436.222656 250.285156 419.589844 239.003906 411.507812 221.9375 C 403.308594 204.625 403.308594 179.707031 411.507812 162.394531 C 420.933594 142.496094 441.214844 131 466.898438 131 C 483.070312 131 495.246094 135.648438 506.597656 146.15625 L 508.671875 148.074219 L 503.253906 153.773438 C 500.273438 156.910156 496.171875 161.191406 494.144531 163.289062 L 490.453125 167.105469 L 488.582031 165.582031 C 485.027344 162.683594 481.128906 160.726562 475.769531 159.140625 C 471.449219 157.859375 465.144531 157.660156 460.347656 158.652344 C 452.511719 160.273438 447 163.464844 441.855469 169.367188 C 431.871094 180.8125 431.390625 201.730469 440.824219 213.988281 C 448.109375 223.457031 461.234375 227.777344 474.804688 225.183594 C 480.476562 224.097656 485.34375 221.878906 489.769531 218.363281 L 492.214844 216.417969 L 494.191406 218.28125 C 495.277344 219.304688 499.589844 223.5 503.773438 227.605469 L 511.378906 235.074219 L 510.605469 235.917969 C 509.113281 237.542969 503.800781 241.804688 500.832031 243.761719 C 493.089844 248.859375 484.398438 251.953125 474.929688 252.980469 C 470.566406 253.457031 461.691406 253.367188 457.007812 252.800781 "/>
</svg>
